<svg xmlns="http://www.w3.org/2000/svg" version="1.1" xmlns:xlink="http://www.w3.org/1999/xlink" xmlns:svgjs="http://svgjs.dev/svgjs" width="1500" height="204" viewBox="0 0 1500 204"><g transform="matrix(1,0,0,1,-0.34199423042593935,1.3434578607603953)"><svg viewBox="0 0 396 54" data-background-color="#ffffff" preserveAspectRatio="xMidYMid meet" height="204" width="1500" xmlns="http://www.w3.org/2000/svg" xmlns:xlink="http://www.w3.org/1999/xlink"><g id="tight-bounds" transform="matrix(1,0,0,1,0.2400000000000091,0.39572364103216273)"><svg viewBox="0 0 395.52 53.20855271793567" height="53.20855271793567" width="395.52"><g><svg viewBox="0 0 449.21694116936567 60.4323" height="53.20855271793567" width="395.52"><g><svg viewBox="0 0 449.21694116936567 60.4323" height="60.4323" width="449.21694116936567"><g id="textblocktransform"><svg viewBox="0 0 449.21694116936567 60.4323" height="60.4323" width="449.21694116936567" id="textblock"><g><svg viewBox="0 0 449.21694116936567 60.4323" height="60.4323" width="449.21694116936567"><g><svg><g></g><g></g></svg></g><g><svg><g></g><g><svg></svg></g></svg></g><g id="text-0"><svg viewBox="0 0 449.21694116936567 60.4323" height="60.4323" width="449.21694116936567"><g><svg xmlns="http://www.w3.org/2000/svg" xmlns:xlink="http://www.w3.org/1999/xlink" version="1.1" x="0" y="0" viewBox="13.891999999999927 0.551 57.71600077842626 88.46" enable-background="new 0 0 90 90" xml:space="preserve" height="60.4323" width="39.429241169365696" class="icon-dxe-0" data-fill-palette-color="accent" id="dxe-0"><path d="M59.847 46.875H35.341A6.55 6.55 0 0 0 30.039 49.579 5 5 0 0 1 31.121 51.802H32.834C34.035 51.802 35.068 52.522 35.529 53.552H37.325A3.654 3.654 0 0 1 40.977 57.204V79.723H59.846A6.563 6.563 0 0 0 66.411 73.159V53.439A6.56 6.56 0 0 0 59.847 46.875" fill="#fe5200" data-fill-palette-color="accent"></path><path d="M32.835 54.245H28.328A2.563 2.563 0 1 0 24.099 54.245H19.591A0.505 0.505 0 0 0 19.087 54.751V58.213C19.087 58.492 19.314 58.719 19.591 58.719H32.835A0.505 0.505 0 0 0 33.341 58.213V54.751A0.505 0.505 0 0 0 32.835 54.245M26.213 51.718A1.08 1.08 0 1 1 26.213 53.88 1.08 1.08 0 0 1 26.213 51.718" fill="#fe5200" data-fill-palette-color="accent"></path><path d="M37.326 55.994H34.849V58.213A1.996 1.996 0 0 1 32.855 60.207H19.612A2 2 0 0 1 17.618 58.213V55.994H15.101A1.21 1.21 0 0 0 13.892 57.204V87.803A1.21 1.21 0 0 0 15.101 89.011H37.326C37.994 89.011 38.534 88.47 38.534 87.803V57.204A1.21 1.21 0 0 0 37.326 55.994M36.111 84.824H16.356V61.743H36.111z" fill="#fe5200" data-fill-palette-color="accent"></path><polygon points="20.918,69.94 19.292,67.399 20.419,66.679 21.148,67.818 24.239,64.726 25.186,65.673 " fill="#fe5200" data-fill-palette-color="accent"></polygon><polygon points="20.918,74.642 19.292,72.101 20.419,71.379 21.148,72.519 24.239,69.425 25.186,70.372 " fill="#fe5200" data-fill-palette-color="accent"></polygon><polygon points="20.917,79.344 19.292,76.8 20.419,76.079 21.148,77.219 24.239,74.126 25.186,75.073 " fill="#fe5200" data-fill-palette-color="accent"></polygon><path d="M27.448 26.034C28.531 36.046 37.007 43.841 47.308 43.841S66.086 36.046 67.166 26.034z" fill="#fe5200" data-fill-palette-color="accent"></path><path d="M69.035 18H67.761A20.52 20.52 0 0 0 54.432 1.69V8.64A1.692 1.692 0 0 1 51.049 8.64V0.801A20 20 0 0 0 49 0.551V8.64A1.69 1.69 0 1 1 45.618 8.64V0.581C44.925 0.645 44.242 0.742 43.569 0.873V8.64A1.69 1.69 0 0 1 40.187 8.64V1.848A20.52 20.52 0 0 0 27.266 18H25.583A2.575 2.575 0 1 0 25.583 23.149H69.035A2.573 2.573 0 0 0 71.608 20.574 2.573 2.573 0 0 0 69.035 18" fill="#fe5200" data-fill-palette-color="accent"></path></svg></g><g transform="matrix(1,0,0,1,53.6969411693657,4.2946339445516735)"><svg width="395.52" viewBox="2.25 -36.75 284.92 37.35" height="51.84303211089665" data-palette-color="#fe5200"><path d="M14.5 0.6L14.5 0.6Q10.8 0.6 8.03-1.13 5.25-2.85 3.75-5.93 2.25-9 2.25-13L2.25-13Q2.25-16.75 3.78-19.85 5.3-22.95 8.15-24.78 11-26.6 14.85-26.6L14.85-26.6Q17.05-26.6 18.73-26.2 20.4-25.8 21.95-25.05L21.95-25.05 20.6-21.25Q19.2-21.95 17.93-22.28 16.65-22.6 15.1-22.6L15.1-22.6Q11.6-22.6 9.22-20.08 6.85-17.55 6.85-13.1L6.85-13.1Q6.85-10.4 7.85-8.2 8.85-6 10.63-4.7 12.4-3.4 14.8-3.4L14.8-3.4Q16.7-3.4 18.05-3.83 19.4-4.25 20.95-5.05L20.95-5.05 22.35-1.25Q20.8-0.4 18.88 0.1 16.95 0.6 14.5 0.6ZM38.05 0.6L38.05 0.6Q34.35 0.6 31.4-1.13 28.45-2.85 26.77-5.93 25.1-9 25.1-13L25.1-13Q25.1-17.2 26.8-20.25 28.5-23.3 31.45-24.95 34.4-26.6 38.05-26.6L38.05-26.6Q41.7-26.6 44.62-24.95 47.55-23.3 49.27-20.28 51-17.25 51-13.1L51-13.1Q51-8.95 49.3-5.88 47.6-2.8 44.67-1.1 41.75 0.6 38.05 0.6ZM38.05-3.4L38.05-3.4Q42-3.4 44.2-6.08 46.4-8.75 46.4-13L46.4-13Q46.4-15.6 45.3-17.78 44.2-19.95 42.32-21.28 40.45-22.6 38.05-22.6L38.05-22.6Q34.1-22.6 31.9-20 29.7-17.4 29.7-13.1L29.7-13.1Q29.7-10.5 30.8-8.28 31.9-6.05 33.77-4.73 35.65-3.4 38.05-3.4ZM61.5 0L57 0 57-26 61.35-26 61.35-21.65Q62.75-23.75 64.92-25.18 67.09-26.6 70.09-26.6L70.09-26.6Q74.5-26.6 76.67-23.95 78.84-21.3 78.84-16.95L78.84-16.95 78.84 0 74.34 0 74.34-16.45Q74.34-19.25 73.02-20.95 71.7-22.65 69.34-22.65L69.34-22.65Q67.05-22.65 65-21.03 62.95-19.4 61.5-17.2L61.5-17.2 61.5 0ZM93.59 0.6L93.59 0.6Q90.64 0.6 88.27-0.15 85.89-0.9 84.34-2.1L84.34-2.1 86.24-5.85Q87.54-4.75 89.52-4.03 91.49-3.3 93.74-3.3L93.74-3.3Q96.54-3.3 97.97-4.23 99.39-5.15 99.39-6.6L99.39-6.6Q99.39-7.65 98.87-8.45 98.34-9.25 96.94-10.03 95.54-10.8 92.89-11.7L92.89-11.7Q89.24-12.95 87.42-14.68 85.59-16.4 85.59-19.45L85.59-19.45Q85.59-22.45 88.22-24.53 90.84-26.6 95.49-26.6L95.49-26.6Q97.99-26.6 99.94-26.08 101.89-25.55 103.44-24.75L103.44-24.75 102.19-21.05Q100.84-21.85 99.12-22.35 97.39-22.85 95.29-22.85L95.29-22.85Q92.69-22.85 91.34-21.8 89.99-20.75 89.99-19.5L89.99-19.5Q89.99-18.3 91.04-17.45 92.09-16.6 95.14-15.6L95.14-15.6Q100.09-13.95 102.04-11.95 103.99-9.95 103.99-6.95L103.99-6.95Q103.99-3.45 101.17-1.43 98.34 0.6 93.59 0.6ZM119.09 0.6L119.09 0.6Q115.34 0.6 113.17-1.88 110.99-4.35 110.99-8.95L110.99-8.95 110.99-21.15 106.49-21.15 106.49-25.05 111.09-25.05 112.04-33.25 115.49-33.25 115.49-25.05 122.69-25.05 122.69-21.15 115.49-21.15 115.49-8.6Q115.49-5.7 116.72-4.55 117.94-3.4 119.64-3.4L119.64-3.4Q120.89-3.4 122.02-3.8 123.14-4.2 124.09-4.75L124.09-4.75 125.34-1.15Q124.34-0.55 122.64 0.03 120.94 0.6 119.09 0.6ZM134.34 0L129.84 0 129.84-26 134.19-26 134.19-20.35Q134.84-22 135.94-23.43 137.04-24.85 138.69-25.73 140.34-26.6 142.54-26.6L142.54-26.6Q143.29-26.6 144.04-26.53 144.79-26.45 145.29-26.3L145.29-26.3 143.94-21.65Q142.99-22.05 141.69-22.05L141.69-22.05Q139.84-22.05 138.16-21 136.49-19.95 135.41-17.75 134.34-15.55 134.34-12.15L134.34-12.15 134.34 0ZM158.29 0.6L158.29 0.6Q156.04 0.6 154.04-0.35 152.04-1.3 150.79-3.43 149.54-5.55 149.54-9.1L149.54-9.1 149.54-26 154.04-26 154.04-9.7Q154.04-6.65 155.34-5.03 156.64-3.4 159.14-3.4L159.14-3.4Q161.19-3.4 163.11-4.23 165.04-5.05 166.54-6.45L166.54-6.45 166.54-26 171.04-26 171.04-6.75Q171.04-4.6 171.96-3.93 172.89-3.25 173.99-3.25L173.99-3.25 173.04 0.25Q168.39 0.25 167.29-3.45L167.29-3.45Q165.54-1.65 163.24-0.53 160.94 0.6 158.29 0.6ZM189.98 0.6L189.98 0.6Q186.28 0.6 183.51-1.13 180.73-2.85 179.23-5.93 177.73-9 177.73-13L177.73-13Q177.73-16.75 179.26-19.85 180.78-22.95 183.63-24.78 186.48-26.6 190.33-26.6L190.33-26.6Q192.53-26.6 194.21-26.2 195.88-25.8 197.43-25.05L197.43-25.05 196.08-21.25Q194.68-21.95 193.41-22.28 192.13-22.6 190.58-22.6L190.58-22.6Q187.08-22.6 184.71-20.08 182.33-17.55 182.33-13.1L182.33-13.1Q182.33-10.4 183.33-8.2 184.33-6 186.11-4.7 187.88-3.4 190.28-3.4L190.28-3.4Q192.18-3.4 193.53-3.83 194.88-4.25 196.43-5.05L196.43-5.05 197.83-1.25Q196.28-0.4 194.36 0.1 192.43 0.6 189.98 0.6ZM212.18 0.6L212.18 0.6Q208.43 0.6 206.26-1.88 204.08-4.35 204.08-8.95L204.08-8.95 204.08-21.15 199.58-21.15 199.58-25.05 204.18-25.05 205.13-33.25 208.58-33.25 208.58-25.05 215.78-25.05 215.78-21.15 208.58-21.15 208.58-8.6Q208.58-5.7 209.81-4.55 211.03-3.4 212.73-3.4L212.73-3.4Q213.98-3.4 215.11-3.8 216.23-4.2 217.18-4.75L217.18-4.75 218.43-1.15Q217.43-0.55 215.73 0.03 214.03 0.6 212.18 0.6ZM227.43 0L222.93 0 222.93-26 227.43-26 227.43 0ZM225.18-30.45L225.18-30.45Q223.88-30.45 222.95-31.4 222.03-32.35 222.03-33.6L222.03-33.6Q222.03-35.05 222.88-35.9 223.73-36.75 225.18-36.75L225.18-36.75Q226.48-36.75 227.4-35.83 228.33-34.9 228.33-33.6L228.33-33.6Q228.33-32.2 227.48-31.33 226.63-30.45 225.18-30.45ZM246.38 0.6L246.38 0.6Q242.68 0.6 239.73-1.13 236.78-2.85 235.1-5.93 233.43-9 233.43-13L233.43-13Q233.43-17.2 235.13-20.25 236.83-23.3 239.78-24.95 242.73-26.6 246.38-26.6L246.38-26.6Q250.03-26.6 252.95-24.95 255.88-23.3 257.6-20.28 259.32-17.25 259.32-13.1L259.32-13.1Q259.32-8.95 257.63-5.88 255.93-2.8 253-1.1 250.08 0.6 246.38 0.6ZM246.38-3.4L246.38-3.4Q250.33-3.4 252.53-6.08 254.73-8.75 254.73-13L254.73-13Q254.73-15.6 253.63-17.78 252.53-19.95 250.65-21.28 248.78-22.6 246.38-22.6L246.38-22.6Q242.43-22.6 240.23-20 238.03-17.4 238.03-13.1L238.03-13.1Q238.03-10.5 239.13-8.28 240.23-6.05 242.1-4.73 243.98-3.4 246.38-3.4ZM269.82 0L265.32 0 265.32-26 269.67-26 269.67-21.65Q271.07-23.75 273.25-25.18 275.42-26.6 278.42-26.6L278.42-26.6Q282.82-26.6 285-23.95 287.17-21.3 287.17-16.95L287.17-16.95 287.17 0 282.67 0 282.67-16.45Q282.67-19.25 281.35-20.95 280.02-22.65 277.67-22.65L277.67-22.65Q275.37-22.65 273.32-21.03 271.27-19.4 269.82-17.2L269.82-17.2 269.82 0Z" opacity="1" transform="matrix(1,0,0,1,0,0)" fill="#fe5200" class="wordmark-text-0" data-fill-palette-color="primary"></path></svg></g></svg></g></svg></g></svg></g></svg></g></svg></g><defs></defs></svg><rect width="395.52" height="53.20855271793567" fill="none" stroke="none" visibility="hidden"></rect></g></svg></g></svg>